<svg height="512pt" viewBox="0 0 512 512" width="512pt" xmlns="http://www.w3.org/2000/svg"><path d="m493.765625 198.414062c-11.574219-11.230468-26.761719-17.414062-42.765625-17.414062-.5 0-1 .007812-1.503906.019531-5.976563-29.359375-29.164063-52.527343-58.527344-58.5.835938-34.039062-26.609375-61.519531-59.96875-61.519531-.488281 0-.980469.007812-1.476562.019531-6.75-33.839843-36.605469-61.019531-73.523438-61.019531-36.910156 0-66.773438 27.171875-73.523438 61.019531-.496093-.011719-.988281-.019531-1.476562-.019531-33.085938 0-60 26.914062-60 60 0 .507812.019531 1.011719.03125 1.519531-29.363281 5.972657-52.550781 29.140625-58.527344 58.5-.503906-.011719-1.003906-.019531-1.503906-.019531-33.03125 0-61 26.6875-61 60 0 33.386719 28.042969 60 61 60h60v15c0 41.355469 33.644531 75 75 75h15v91h-75c-8.285156 0-15 6.714844-15 15s6.714844 15 15 15h240c8.285156 0 15-6.714844 15-15s-6.714844-15-15-15h-75v-91h15c41.355469 0 75-33.644531 75-75v-15h60c33.019531 0 61-26.679688 61-60 0-16.054688-6.476562-31.175781-18.234375-42.585938zm-312.765625-107.414062c3.238281 0 6.566406.636719 10.167969 1.941406 9.890625 3.59375 21.773437-3.804687 19.835937-17.445312.273438-24.714844 20.765625-45.496094 44.996094-45.496094 23.847656 0 46 20.664062 44.730469 48.144531-.5 10.660157 10.03125 18.453125 20.101562 14.796875 3.601563-1.304687 6.925781-1.941406 10.167969-1.941406 16.878906 0 30.804688 14.082031 29.9375 31.519531-18.265625 3.738281-34.136719 14.136719-44.949219 28.539063-13.691406-18.234375-35.480469-30.058594-59.988281-30.058594s-46.296875 11.824219-59.988281 30.058594c-10.8125-14.402344-26.683594-24.800782-44.949219-28.539063-.023438-.503906-.0625-1.007812-.0625-1.519531 0-16.542969 13.457031-30 30-30zm150 180c-6.984375 0-144.035156 0-150 0-16.542969 0-30-13.457031-30-30s13.457031-30 30-30c8.109375 0 9.070312 2.945312 14.996094 2.835938 8.496094.164062 16.644531-6.84375 15.007812-18.339844.269532-24.582032 20.351563-44.496094 44.996094-44.496094s44.722656 19.914062 44.996094 44.492188c-2.140625 15.019531 12.046875 21.820312 22.085937 16.71875 2.753907-.808594 5.363281-1.210938 7.917969-1.210938 16.542969 0 30 13.457031 30 30 0 16.539062-13.457031 30-30 30zm-301-30c0-16.261719 14.195312-30 31-30 3.238281 0 6.566406.636719 10.167969 1.941406 9.894531 3.59375 21.773437-3.808594 19.835937-17.445312.269532-24.582032 20.351563-44.496094 44.996094-44.496094 19.578125 0 36.261719 12.574219 42.4375 30.066406-31.898438 1.347656-57.4375 27.707032-57.4375 59.933594 0 10.925781 2.949219 21.167969 8.070312 30h-68.070312c-16.804688 0-31-13.738281-31-30zm166 120c-24.8125 0-45-20.1875-45-45v-15h60v60zm45 121v-181h30v181zm120-166c0 24.8125-20.1875 45-45 45h-15v-60h60zm90-45h-68.070312c5.121093-8.832031 8.070312-19.074219 8.070312-30 0-32.226562-25.539062-58.585938-57.4375-59.933594 6.171875-17.492187 22.859375-30.066406 42.4375-30.066406 24.644531 0 44.722656 19.914062 44.996094 44.492188-1.972656 13.832031 10.109375 20.984374 19.835937 17.449218 3.601563-1.304687 6.925781-1.941406 10.167969-1.941406 16.804688 0 31 13.738281 31 30s-14.195312 30-31 30zm0 0"/></svg>