<?xml version="1.0" encoding="UTF-8" standalone="no"?>
<svg
   xmlns:dc="http://purl.org/dc/elements/1.1/"
   xmlns:cc="http://creativecommons.org/ns#"
   xmlns:rdf="http://www.w3.org/1999/02/22-rdf-syntax-ns#"
   xmlns:svg="http://www.w3.org/2000/svg"
   xmlns="http://www.w3.org/2000/svg"
   xmlns:xlink="http://www.w3.org/1999/xlink"
   width="36.754013mm"
   height="51.384605mm"
   viewBox="0 0 36.754013 51.384605"
   version="1.1"
   id="svg8">
  <defs
     id="defs2">
    <linearGradient
       id="linearGradient4756">
      <stop
         id="stop4752"
         offset="0"
         style="stop-color:#ffff34;stop-opacity:1;" />
      <stop
         id="stop4754"
         offset="1"
         style="stop-color:#ffff34;stop-opacity:0;" />
    </linearGradient>
    <linearGradient
       gradientTransform="matrix(0.26458332,0,0,0.26458332,-27.318198,3.1741116)"
       gradientUnits="userSpaceOnUse"
       y2="-17.851923"
       x2="253.78722"
       y1="269.85501"
       x1="9.8385553"
       id="linearGradient4758"
       xlink:href="#linearGradient4756" />
  </defs>
  <metadata
     id="metadata5">
    <rdf:RDF>
      <cc:Work
         rdf:about="">
        <dc:format>image/svg+xml</dc:format>
        <dc:type
           rdf:resource="http://purl.org/dc/dcmitype/StillImage" />
        <dc:title></dc:title>
      </cc:Work>
    </rdf:RDF>
  </metadata>
  <g
     transform="translate(75.727106,-1.7321954)"
     style="fill:#ffffff"
     id="g4604">
    <path
       style="color:#000000;font-style:normal;font-variant:normal;font-weight:normal;font-stretch:normal;font-size:medium;line-height:normal;font-family:sans-serif;font-variant-ligatures:normal;font-variant-position:normal;font-variant-caps:normal;font-variant-numeric:normal;font-variant-alternates:normal;font-feature-settings:normal;text-indent:0;text-align:start;text-decoration:none;text-decoration-line:none;text-decoration-style:solid;text-decoration-color:#000000;letter-spacing:normal;word-spacing:normal;text-transform:none;writing-mode:lr-tb;direction:ltr;text-orientation:mixed;dominant-baseline:auto;baseline-shift:baseline;text-anchor:start;white-space:normal;shape-padding:0;clip-rule:nonzero;display:inline;overflow:visible;visibility:visible;opacity:1;isolation:auto;mix-blend-mode:normal;color-interpolation:sRGB;color-interpolation-filters:linearRGB;solid-color:#000000;solid-opacity:1;vector-effect:none;fill:#ffffff;fill-opacity:1;fill-rule:evenodd;stroke:none;stroke-width:2.66499996;stroke-linecap:butt;stroke-linejoin:miter;stroke-miterlimit:4;stroke-dasharray:none;stroke-dashoffset:0;stroke-opacity:1;color-rendering:auto;image-rendering:auto;shape-rendering:auto;text-rendering:auto;enable-background:accumulate"
       d="m -57.269531,1.7324219 c -1.140675,0.00749 -2.331271,0.3056901 -3.480469,1.0117187 -2.164357,1.3297084 -4.127354,4.0428884 -5.970703,8.3789064 -0.956352,0.127259 -3.77636,0.586529 -6.287109,2.728515 -1.48469,1.266628 -2.689221,3.207425 -2.71875,5.730469 -0.02792,2.385314 1.018403,5.23247 3.291015,8.623047 -1.405503,5.233622 -0.437034,9.390787 2.46875,11.78711 3.021737,2.491945 7.611995,3.04622 12.808594,2.203124 l -0.425781,-2.630859 c -4.753691,0.771238 -8.574635,0.113518 -10.6875,-1.628906 -2.112866,-1.742424 -2.977553,-4.633822 -1.494141,-9.564453 l 0.185547,-0.619141 -0.371094,-0.529297 c -2.370548,-3.378322 -3.131673,-5.871098 -3.111328,-7.609375 0.02035,-1.738276 0.734333,-2.83789 1.785156,-3.734375 2.101647,-1.79297 5.582032,-2.255859 5.582032,-2.255859 l 0.796874,-0.08594 0.296876,-0.74414 c 1.823374,-4.5477975 3.707638,-6.8341218 5.246093,-7.7792971 1.538456,-0.9451753 2.780003,-0.7886919 4.115235,-0.1484375 2.670462,1.2805087 4.953125,4.9238281 4.953125,4.9238281 l 0.291015,0.4921875 0.558594,0.130859 c 3.157204,0.72947 4.912581,1.875334 5.882812,3.060547 0.970232,1.185213 1.24189,2.475436 1.181641,3.810547 -0.120498,2.670222 -1.742187,5.232422 -1.742187,5.232422 l -0.476563,0.722656 0.466797,0.730469 c 2.043377,3.190175 2.616172,5.679223 2.470703,7.623047 -0.145469,1.943824 -1.001546,3.428406 -2.150391,4.636719 -2.297688,2.416626 -5.179304,3.720503 -5.625452,4.866732 -0.174131,0.447373 0.456358,1.099214 0.87616,1.143033 1.009252,0.105347 3.75682,-1.096398 6.680933,-4.171875 1.462057,-1.537738 2.677612,-3.639749 2.875,-6.277344 0.182322,-2.436266 -0.632067,-5.298132 -2.521484,-8.5 0.491329,-0.810257 1.674433,-2.913738 1.808593,-5.886718 0.08176,-1.811721 -0.343945,-3.86141 -1.78125,-5.617188 -1.348677,-1.647513 -3.602885,-2.9347563 -6.794921,-3.769531 -0.376444,-0.6409626 -2.352653,-3.898392 -5.802735,-5.5527344 -0.949354,-0.455223 -2.039012,-0.7379636 -3.179687,-0.7304687 z"
       id="path4564" />
    <path
       id="rect4566"
       d="m -63.954017,-19.115723 h 0.541919 c 0.452314,0 0.816452,0.364138 0.816452,0.816453 v 11.2218006 c 0,0.4523147 -0.364138,0.8164526 -0.816452,0.8164526 h -0.541919 c -0.452315,0 -0.816453,-0.3641379 -0.816453,-0.8164526 V -18.29927 c 0,-0.452315 0.364138,-0.816453 0.816453,-0.816453 z"
       style="opacity:1;fill:#ffffff;fill-opacity:0.98431373;fill-rule:evenodd;stroke:none;stroke-width:3.43273497;stroke-linecap:butt;stroke-linejoin:miter;stroke-miterlimit:4;stroke-dasharray:none;stroke-dashoffset:0;stroke-opacity:1;paint-order:markers stroke fill"
       transform="matrix(0.83266935,-0.55377049,0.55222783,0.83369325,0,0)" />
    <path
       id="rect4566-8"
       d="m -57.018984,15.852579 h 0.621489 c 0.430275,0 0.77667,0.346395 0.77667,0.77667 V 52.2062 c 0,0.430275 -0.346395,0.77667 -0.77667,0.77667 h -0.621489 c -0.430276,0 -0.77667,-0.346395 -0.77667,-0.77667 V 16.629249 c 0,-0.430275 0.346394,-0.77667 0.77667,-0.77667 z"
       style="opacity:1;fill:#ffffff;fill-opacity:0.98431373;fill-rule:evenodd;stroke:none;stroke-width:5.83410025;stroke-linecap:butt;stroke-linejoin:miter;stroke-miterlimit:4;stroke-dasharray:none;stroke-dashoffset:0;stroke-opacity:1;paint-order:markers stroke fill"
       transform="matrix(0.99999724,-0.0023475,-3.5964505e-4,0.99999994,0,0)" />
    <path
       id="rect4566-6"
       d="m 27.684968,48.086395 h 0.593248 c 0.438097,0 0.790788,0.352692 0.790788,0.790788 v 11.27313 c 0,0.438097 -0.352691,0.790788 -0.790788,0.790788 h -0.593248 c -0.438096,0 -0.790788,-0.352691 -0.790788,-0.790788 v -11.27313 c 0,-0.438096 0.352692,-0.790788 0.790788,-0.790788 z"
       style="opacity:1;fill:#ffffff;fill-opacity:0.98431373;fill-rule:evenodd;stroke:none;stroke-width:3.43273497;stroke-linecap:butt;stroke-linejoin:miter;stroke-miterlimit:4;stroke-dasharray:none;stroke-dashoffset:0;stroke-opacity:1;paint-order:markers stroke fill"
       transform="matrix(-0.83266935,-0.55377049,-0.55222783,0.83369324,0,0)" />
  </g>
  <path
     id="path4564-1"
     d="M 18.457817,1.4529542e-4 C 17.317143,0.0076353 16.126608,0.3059411 14.977409,1.0119698 12.813051,2.3416782 10.850062,5.0547681 9.0067159,9.3907866 8.0503629,9.5180456 5.2305089,9.9773156 2.7197607,12.119302 1.2350697,13.38593 0.03007571,15.326655 5.4570566e-4,17.8497 -0.02737429,20.235013 1.0192067,23.082369 3.2918187,26.472946 c -1.405503,5.233621 -0.437203,9.390556 2.4685812,11.786876 2.894348,2.386891 7.2294481,2.992866 12.1563651,2.299086 l -0.0036,10.050547 c -1.54e-4,0.430276 0.345908,0.776147 0.776182,0.775147 l 0.621667,-0.0016 c 0.430273,-10e-4 0.776542,-0.348488 0.776698,-0.778764 l 0.0062,-17.054771 c 0.0072,-0.0098 0.01594,-0.01764 0.02274,-0.02791 l 6.225461,-9.398392 c 0.241927,-0.365237 0.143097,-0.854487 -0.221692,-1.097091 l -0.494028,-0.328662 c -0.364791,-0.242605 -0.853096,-0.144063 -1.095023,0.221175 l -4.435906,6.696749 0.0052,-14.58774 c 1.56e-4,-0.430274 -0.345906,-0.776145 -0.776179,-0.775145 l -0.621668,0.0015 c -0.430276,10e-4 -0.776541,0.348489 -0.776697,0.778763 l -0.0036,9.318811 -4.421952,-6.676078 c -0.24978,-0.377092 -0.754052,-0.478888 -1.130681,-0.22841 l -0.451133,0.299723 c -0.376629,0.250478 -0.478708,0.755655 -0.228928,1.132747 l 6.197038,9.355501 c 0.01031,0.01557 0.02347,0.02775 0.03462,0.04237 l -0.0036,9.587527 C 13.269732,38.579005 9.5349639,37.917645 7.4559059,36.2031 5.3430379,34.460676 4.4785277,31.569457 5.9619389,26.638827 l 0.18552,-0.619083 -0.371038,-0.529167 C 3.4058727,22.112255 2.6446377,19.619499 2.6649837,17.881223 c 0.02035,-1.738276 0.734079,-2.838172 1.784903,-3.734655 2.1016462,-1.79297 5.5820893,-2.255676 5.5820893,-2.255676 l 0.796848,-0.08578 0.297141,-0.74414 c 1.823373,-4.5477984 3.707219,-6.8341951 5.245674,-7.7793704 1.538456,-0.9451753 2.780278,-0.7885657 4.115511,-0.1483114 2.670463,1.2805088 4.953185,4.9237304 4.953185,4.9237304 l 0.290938,0.491959 0.558623,0.130742 c 3.157204,0.72947 4.912614,1.8755824 5.882846,3.0607954 0.970233,1.185213 1.241571,2.475509 1.181322,3.810619 -0.120499,2.670221 -1.742011,5.232238 -1.742011,5.232238 l -0.476459,0.722953 0.46664,0.730188 c 2.043377,3.190175 2.616118,5.679483 2.47065,7.623308 -0.14547,1.943823 -1.00141,3.428095 -2.150258,4.636408 -2.297686,2.416627 -5.179348,3.720658 -5.625496,4.866886 -0.17413,0.447373 0.456631,1.099264 0.876432,1.143084 1.009253,0.105347 3.756618,-1.096362 6.680729,-4.171839 1.462058,-1.537739 2.677374,-3.640057 2.874761,-6.277652 0.182322,-2.436267 -0.631875,-5.297872 -2.521294,-8.49974 0.491329,-0.810257 1.674516,-2.913998 1.808676,-5.886979 0.08176,-1.811723 -0.343982,-3.861451 -1.781286,-5.617229 C 32.886472,8.4052486 30.632251,7.1182566 27.440214,6.2834826 27.063771,5.6425196 25.08755,2.3851924 21.637468,0.73085 20.688114,0.275627 19.598491,-0.0073496 18.457817,1.4529542e-4 Z"
     style="color:#000000;font-style:normal;font-variant:normal;font-weight:normal;font-stretch:normal;font-size:medium;line-height:normal;font-family:sans-serif;font-variant-ligatures:normal;font-variant-position:normal;font-variant-caps:normal;font-variant-numeric:normal;font-variant-alternates:normal;font-feature-settings:normal;text-indent:0;text-align:start;text-decoration:none;text-decoration-line:none;text-decoration-style:solid;text-decoration-color:#000000;letter-spacing:normal;word-spacing:normal;text-transform:none;writing-mode:lr-tb;direction:ltr;text-orientation:mixed;dominant-baseline:auto;baseline-shift:baseline;text-anchor:start;white-space:normal;shape-padding:0;clip-rule:nonzero;display:inline;overflow:visible;visibility:visible;opacity:1;isolation:auto;mix-blend-mode:normal;color-interpolation:sRGB;color-interpolation-filters:linearRGB;solid-color:#000000;solid-opacity:1;vector-effect:none;fill:url(#linearGradient4758);fill-opacity:1;fill-rule:evenodd;stroke:none;stroke-width:2.66499996;stroke-linecap:butt;stroke-linejoin:miter;stroke-miterlimit:4;stroke-dasharray:none;stroke-dashoffset:0;stroke-opacity:1;color-rendering:auto;image-rendering:auto;shape-rendering:auto;text-rendering:auto;enable-background:accumulate" />
</svg>
