<svg height="512pt" viewBox="-55 0 512 512" width="512pt" xmlns="http://www.w3.org/2000/svg" xmlns:xlink="http://www.w3.org/1999/xlink"><linearGradient id="a" gradientUnits="userSpaceOnUse" x1="201" x2="201" y1="0" y2="512"><stop offset="0" stop-color="#2af598"/><stop offset="1" stop-color="#009efd"/></linearGradient><path d="m402 177.636719c0-54.453125-41.761719-99.332031-94.925781-104.246094-14.902344-43.371094-55.878907-73.390625-102.984375-73.390625-57.121094 0-104.113282 44.203125-108.605469 100.21875-54 8.300781-95.484375 55.101562-95.484375 111.417969 0 29.464843 11.207031 57.058593 31.222656 77.898437-6.066406 14.003906-9.222656 29.742188-9.222656 46.355469 0 29.949219 11.4375 58.0625 32.207031 79.160156 20.914063 21.25 48.914063 32.949219 78.839844 32.949219h53.953125v64h40v-148.363281l71.867188-71.867188-28.285157-28.285156-43.582031 43.582031v-139.066406h-40v87.042969l-48.53125-48.53125-28.285156 28.28125 76.816406 76.816406v96.390625h-53.953125c-39.839844 0-71.046875-31.675781-71.046875-72.109375 0-15.382813 3.671875-28.742187 10.914062-39.703125l10.261719-15.523438-14.746093-11.351562c-18.066407-13.90625-28.429688-34.929688-28.429688-57.675781 0-40.101563 32.597656-72.726563 72.660156-72.726563.582032 0 1.15625.023438 1.730469.042969l23.746094.769531-2.558594-22.949218c-.296875-2.65625-.445313-5.265626-.445313-7.753907 0-38.058593 30.933594-69.019531 68.957032-69.019531 33.398437 0 61.929687 23.847656 67.835937 56.703125l3.167969 17.617187 17.859375-1.203124c1.742187-.117188 3.144531-.171876 4.414063-.171876 35.640624 0 64.632812 29.019532 64.632812 64.691407 0 17.421875-6.828125 33.761719-19.222656 46.015625l-12.707032 12.566406 11.0625 14.035156c13.652344 17.324219 20.867188 38.171875 20.867188 60.292969 0 54.882813-43.542969 97.453125-81 97.453125v40c29.925781 0 60.511719-14.960938 83.917969-41.042969 23.914062-26.648437 37.082031-60.890625 37.082031-96.410156 0-25.585937-6.851562-49.96875-19.945312-71.398437 12.957031-17.765626 19.945312-39.085938 19.945312-61.511719zm0 0" fill="url(#a)"/></svg>